<svg width="79" height="79" viewBox="0 0 79 79" fill="none" xmlns="http://www.w3.org/2000/svg">
<path d="M76.8295 66.3581L58.7057 48.2328C56.0053 52.4327 52.4315 56.0047 48.2317 58.7053L66.3569 76.8305C69.2505 79.7234 73.942 79.7234 76.8294 76.8305C79.7231 73.9423 79.7231 69.2508 76.8295 66.3581Z" fill="#261E1E"/>
<path d="M59.2499 29.625C59.2499 13.265 45.9855 0 29.6252 0C13.2652 0 0.000183105 13.265 0.000183105 29.625C0.000183105 45.985 13.2652 59.2494 29.6252 59.2494C45.9855 59.2494 59.2499 45.985 59.2499 29.625ZM29.6252 51.8429C17.373 51.8429 7.40665 41.8773 7.40665 29.6252C7.40665 17.373 17.373 7.40662 29.6252 7.40662C41.877 7.40662 51.8442 17.373 51.8442 29.6252C51.8442 41.8773 41.877 51.8429 29.6252 51.8429Z" fill="#261E1E"/>
<path d="M12.3442 29.625H17.281C17.281 22.8189 22.819 17.2814 29.625 17.2814V12.344C20.0976 12.344 12.3442 20.0974 12.3442 29.625Z" fill="#261E1E"/>
</svg>
