<svg width="62" height="62" viewBox="0 0 62 62" fill="none" xmlns="http://www.w3.org/2000/svg">
<g clip-path="url(#clip0_1_3)">
<path d="M23.5083 49.0833C25.2212 49.0833 26.8639 49.7638 28.0751 50.9749C29.2862 52.1861 29.9667 53.8288 29.9667 55.5417C29.9667 57.2545 29.2862 58.8972 28.0751 60.1084C26.8639 61.3196 25.2212 62 23.5083 62C21.7955 62 20.1528 61.3196 18.9416 60.1084C17.7304 58.8972 17.05 57.2545 17.05 55.5417C17.05 53.8288 17.7304 52.1861 18.9416 50.9749C20.1528 49.7638 21.7955 49.0833 23.5083 49.0833V49.0833ZM50.375 49.0833C52.0879 49.0833 53.7306 49.7638 54.9417 50.9749C56.1529 52.1861 56.8333 53.8288 56.8333 55.5417C56.8333 57.2545 56.1529 58.8972 54.9417 60.1084C53.7306 61.3196 52.0879 62 50.375 62C48.6621 62 47.0194 61.3196 45.8083 60.1084C44.5971 58.8972 43.9167 57.2545 43.9167 55.5417C43.9167 53.8288 44.5971 52.1861 45.8083 50.9749C47.0194 49.7638 48.6621 49.0833 50.375 49.0833V49.0833ZM50.375 54.25C50.0324 54.25 49.7039 54.3861 49.4617 54.6283C49.2194 54.8706 49.0833 55.1991 49.0833 55.5417C49.0833 55.8842 49.2194 56.2128 49.4617 56.455C49.7039 56.6972 50.0324 56.8333 50.375 56.8333C50.7176 56.8333 51.0461 56.6972 51.2884 56.455C51.5306 56.2128 51.6667 55.8842 51.6667 55.5417C51.6667 55.1991 51.5306 54.8706 51.2884 54.6283C51.0461 54.3861 50.7176 54.25 50.375 54.25ZM23.5083 54.25C23.1658 54.25 22.8372 54.3861 22.595 54.6283C22.3528 54.8706 22.2167 55.1991 22.2167 55.5417C22.2167 55.8842 22.3528 56.2128 22.595 56.455C22.8372 56.6972 23.1658 56.8333 23.5083 56.8333C23.8509 56.8333 24.1794 56.6972 24.4217 56.455C24.6639 56.2128 24.8 55.8842 24.8 55.5417C24.8 55.1991 24.6639 54.8706 24.4217 54.6283C24.1794 54.3861 23.8509 54.25 23.5083 54.25ZM8.78333 3.70112e-07C9.18134 -0.000212659 9.574 0.0915384 9.9307 0.268095C10.2874 0.444651 10.5985 0.701237 10.8397 1.01783L11.098 1.43117L12.9528 5.1615L56.8333 5.16667C57.6634 5.16672 58.4813 5.36678 59.2177 5.74991C59.9541 6.13304 60.5873 6.68796 61.0638 7.36769C61.5402 8.04742 61.8459 8.83195 61.9549 9.65486C62.0639 10.4778 61.9731 11.3148 61.69 12.0952L61.4523 12.6428L51.119 33.3095C50.7388 34.07 50.1767 34.7248 49.4827 35.216C48.7888 35.7072 47.9843 36.0195 47.1407 36.1253L46.5 36.1667H25.8333C25.5179 36.1662 25.2031 36.1368 24.893 36.0788L22.2632 41.3333H54.25C54.8956 41.3321 55.5182 41.5727 55.9952 42.0076C56.4723 42.4426 56.7692 43.0403 56.8275 43.6832C56.8859 44.3262 56.7014 44.9676 56.3104 45.4813C55.9194 45.995 55.3502 46.3437 54.715 46.4587L54.25 46.5H22.2632C21.4337 46.4996 20.6165 46.2996 19.8807 45.9167C19.1448 45.5339 18.512 44.9795 18.0356 44.3005C17.5593 43.6214 17.2534 42.8376 17.1439 42.0154C17.0344 41.1932 17.1245 40.3567 17.4065 39.5767L17.6442 39.0238L20.8527 32.5965L10.881 12.6428C10.7828 12.4485 10.6965 12.2484 10.6227 12.0435L7.18167 5.16667H2.58333C1.9787 5.16687 1.39315 4.95498 0.928663 4.56791C0.464172 4.18083 0.150167 3.64309 0.0413335 3.04833L1.43686e-07 2.58333C-0.000201428 1.9787 0.211686 1.39315 0.598762 0.928663C0.985838 0.464172 1.52358 0.150167 2.11833 0.0413337L2.58333 3.70112e-07H8.78333Z" fill="#C4C4C4"/>
</g>
<defs>
<clipPath id="clip0_1_3">
<rect width="62" height="62" fill="white"/>
</clipPath>
</defs>
</svg>
